# xmcd
#
# Track frame offsets:
#	150
#	18110
#	34005
#	53189
#	67033
#	89721
#	107797
#	122173
#	140121
#	158644
#	172409
#	191116
#	206552
#	218710
#	232236
#	245890
#	260343
#	272684
#	292292
#	305682
#
# Disc length: 4281 seconds
#
# Revision: 1
# Processed by: cddbd v1.5.2PL0 Copyright (c) Steve Scherf et al.
# Submitted via: audiograbber 1.83.01
#
DISCID=4810b714
DTITLE=Various Artist - Complete 70's Vol 1 A-D
DYEAR=1900
DGENRE=
TTITLE0=Abba - Take A Chance On Me
TTITLE1=Bachman-Turner Overdrive - You Ain't Seen Nothing Yet
TTITLE2=Bad Company - Can't Get Enough
TTITLE3=Bay City Rollers - Shang A Lang
TTITLE4=Bee Gees - Tragedy
TTITLE5=Blondie - Heart Of Glass
TTITLE6=Barry Blue - Dancing On A Saturday Night
TTITLE7=Boney M - Rivers Of Babylon
TTITLE8=David Bowie - Jean Genie
TTITLE9=Brotherhood Of Man - Save Your Kisses For Me
TTITLE10=James Brown - Get Up Offa That Thing
TTITLE11=Buggles - Video Killed The Radio Star
TTITLE12=Buzzcocks - Ever Fallen In Love
TTITLE13=Carpenters - Top Of The World
TTITLE14=Tina Charles - I Love To Love
TTITLE15=Chicory Tip - Son Of My Father
TTITLE16=Christie - Yellow River
TTITLE17=Eric Clapton - I Shot The Sheriff
TTITLE18=Dawn - Knock Three Times
TTITLE19=Neil Diamond - Sweet Caroline
EXTD=
EXTT0=
EXTT1=
EXTT2=
EXTT3=
EXTT4=
EXTT5=
EXTT6=
EXTT7=
EXTT8=
EXTT9=
EXTT10=
EXTT11=
EXTT12=
EXTT13=
EXTT14=
EXTT15=
EXTT16=
EXTT17=
EXTT18=
EXTT19=
PLAYORDER=
